g 
v 1.280581 1.76644 0.7330532
v 1.307932 1.740709 -0.6688204
v -0.0795517 1.743737 -0.7146883
v -0.08726692 1.784779 0.7448403
v 1.320636 -0.02198792 0.6708961
v -0.07045154 -0.03463507 -0.7192879
v 1.295448 0.006414175 -0.7330942
v -0.07179356 -0.04922342 0.7526903
v -0.0795517 1.743737 -0.7146883
v 1.307932 1.740709 -0.6688204
v 1.295448 0.006414175 -0.7330942
v -0.07045154 -0.03463507 -0.7192879
v 1.280581 1.76644 0.7330532
v -0.08726692 1.784779 0.7448403
v -0.07179356 -0.04922342 0.7526903
v 1.320636 -0.02198792 0.6708961
v -0.08726692 1.784779 0.7448403
v -0.0795517 1.743737 -0.7146883
v -0.07045154 -0.03463507 -0.7192879
v -0.07179356 -0.04922342 0.7526903
v 1.280581 1.76644 0.7330532
v 1.295448 0.006414175 -0.7330942
v 1.307932 1.740709 -0.6688204
v 1.320636 -0.02198792 0.6708961
v 1.310121 1.761974 0.7743297
v -0.101141 1.768027 -0.6870146
v 1.328524 1.738669 -0.6621666
v -0.08489037 1.773698 0.7570739
v -0.08489037 1.773698 0.7570739
v 0.6436685 2.714448 0.007437706
v -0.101141 1.768027 -0.6870146
v 1.328524 1.738669 -0.6621666
v 1.310121 1.761974 0.7743297
v -0.101141 1.768027 -0.6870146
v 0.6436685 2.714448 0.007437706
v 1.328524 1.738669 -0.6621666
v 1.310121 1.761974 0.7743297
v -0.08489037 1.773698 0.7570739
v -0.02441064 0.9986422 0.9837399
v -0.0408206 1.02201 -0.9641535
v -1.669139 1.009645 -0.9530971
v -1.589364 0.9607702 0.9826007
v -0.05042171 0.003993273 0.9774632
v -1.650273 -0.01936436 -0.9611522
v -0.01879164 0.02769279 -0.9840126
v -1.57191 -0.05747342 0.9778593
v -1.669139 1.009645 -0.9530971
v -0.0408206 1.02201 -0.9641535
v -0.01879164 0.02769279 -0.9840126
v -1.650273 -0.01936436 -0.9611522
v -0.02441064 0.9986422 0.9837399
v -1.589364 0.9607702 0.9826007
v -1.57191 -0.05747342 0.9778593
v -0.05042171 0.003993273 0.9774632
v -1.589364 0.9607702 0.9826007
v -1.669139 1.009645 -0.9530971
v -1.650273 -0.01936436 -0.9611522
v -1.57191 -0.05747342 0.9778593
v -0.02441064 0.9986422 0.9837399
v -0.01879164 0.02769279 -0.9840126
v -0.0408206 1.02201 -0.9641535
v -0.05042171 0.003993273 0.9774632

vn 0.008039713 0.9996978 -0.02322991
vn 0.002786979 0.9998288 -0.0182971
vn 0.008039713 0.9996978 -0.02322991
vn 0.01315893 0.9995203 -0.02803656
vn 0.0242209 -0.9995919 -0.01514289
vn 0.0242209 -0.9995919 -0.01514289
vn 0.02982331 -0.9993398 -0.02075124
vn 0.01897419 -0.999771 -0.009891146
vn 0.01137091 0.01959117 -0.9997433
vn 0.03309813 0.03677686 -0.9987752
vn 0.01137091 0.01959117 -0.9997433
vn -0.01018348 0.002534141 -0.9999449
vn 0.03392641 -0.01446163 0.9993197
vn 0.008675185 0.004353275 0.9999529
vn 0.03392641 -0.01446163 0.9993197
vn 0.05925841 -0.03334754 0.9976856
vn -0.9999722 -0.006805133 -0.003028128
vn -0.9999738 -0.005103694 -0.005142455
vn -0.9999722 -0.006805133 -0.003028128
vn -0.9999639 -0.008440895 -0.0009953348
vn 0.9999694 0.00779861 0.000778051
vn 0.9999694 0.00779861 0.000778051
vn 0.9997755 -0.007924815 0.01965116
vn 0.9995829 0.02299467 -0.01746787
vn -0.0146913 -0.9998416 0.0100464
vn -0.0146913 -0.9998416 0.0100464
vn -0.020805 -0.9996564 0.01595134
vn -0.008453442 -0.9999562 0.004021853
vn -0.7881159 0.6154931 0.006451845
vn 0.01145432 0.9999136 0.006460694
vn -0.7881159 0.6154931 0.006451845
vn 0.8188978 0.573938 0.001179969
vn 0.8188978 0.573938 0.001179969
vn 0.02604474 0.5779862 -0.8156309
vn 0.01792771 0.9994861 -0.02656879
vn 0.02604474 0.5779862 -0.8156309
vn -0.004398474 0.6252666 0.7803989
vn -0.004398474 0.6252666 0.7803989
vn -0.01566836 0.999697 0.01898438
vn -0.007510997 0.9998991 0.01205843
vn -0.01566836 0.999697 0.01898438
vn -0.02420373 0.9993628 0.02623056
vn 0.03427497 -0.9992804 -0.01624563
vn 0.03427497 -0.9992804 -0.01624563
vn 0.02866666 -0.9995216 -0.01161445
vn 0.04035148 -0.9989592 -0.02126417
vn -0.01065055 0.01357886 -0.999851
vn -0.006939054 0.01981444 -0.9997796
vn -0.01065055 0.01357886 -0.999851
vn -0.01422847 0.007566129 -0.9998702
vn -6.461218E-05 -0.005473377 0.999985
vn -0.000614973 -0.004666969 0.9999889
vn -6.461218E-05 -0.005473377 0.999985
vn 0.000515748 -0.006323736 0.9999799
vn -0.9990231 -0.01797572 0.04036953
vn -0.9989976 -0.01863396 0.04070065
vn -0.9990231 -0.01797572 0.04036953
vn -0.9990483 -0.01731154 0.04003541
vn 0.9999905 -0.002052921 0.003868485
vn 0.9999905 -0.002052921 0.003868485
vn 0.9997179 0.02231148 -0.008154432
vn 0.9995308 -0.02623845 0.01580106

vt 0.9972628 0.2613851
vt 1 0.04765796
vt 0.8611435 0.04066502
vt 0.8603714 0.2631821
vt 0.2973226 0.2971124
vt 0.1581053 0.5090573
vt 0.2948018 0.5111622
vt 0.157971 0.2846422
vt 0.3130706 0.7923484
vt 0.4519271 0.7920207
vt 0.4506778 0.6043211
vt 0.3139813 0.5998784
vt 0.4756688 0.576136
vt 0.6125602 0.5781208
vt 0.6110116 0.3796301
vt 0.4716601 0.3825777
vt 0.03624852 0.1993836
vt 0.2587656 0.1949417
vt 0.2594669 0.002471753
vt 0.03505172 0.0008928821
vt 0.6241927 0.2161556
vt 0.4006664 0.02567124
vt 0.4104655 0.2133708
vt 0.6147163 0.02259734
vt 0.2962702 0.2813431
vt 0.155034 0.504137
vt 0.298112 0.5003487
vt 0.1566603 0.2839738
vt 0.0343834 0.1981843
vt 0.9335219 0.150759
vt 0.2545466 0.1975706
vt 0.4114799 0.21315
vt 0.6304856 0.2156723
vt 0.31091 0.7949772
vt 0.9335219 0.150759
vt 0.453988 0.7917999
vt 0.4727125 0.5756527
vt 0.6123223 0.5769216
vt 0.8666619 0.2996043
vt 0.8650196 0.002631999
vt 0.7020608 0.004317641
vt 0.7100445 0.2994306
vt 0.1601099 0.2503737
vt 0 0.5459315
vt 0.1632754 0.5494168
vt 0.007842451 0.2503133
vt 0.1539879 0.712899
vt 0.3169467 0.7142372
vt 0.3191513 0.6066241
vt 0.155876 0.6015311
vt 0.6062697 0.4930387
vt 0.762887 0.4889399
vt 0.7611402 0.3787372
vt 0.6088728 0.3853896
vt 0 0.1102026
vt 0.295113 0.1154923
vt 0.2963411 0.004124474
vt 0.0007228553 0
vt 0.6624119 0.1330583
vt 0.3624119 0.02797419
vt 0.3654396 0.1355873
vt 0.661455 0.02540924

usemtl Generated Mesh
usemap Generated Mesh
f 1/1/1 2/2/2 3/3/3
f 3/3/3 4/4/4 1/1/1
f 5/5/5 6/6/6 7/7/7
f 6/6/6 5/5/5 8/8/8
f 9/9/9 10/10/10 11/11/11
f 11/11/11 12/12/12 9/9/9
f 13/13/13 14/14/14 15/15/15
f 15/15/15 16/16/16 13/13/13
f 17/17/17 18/18/18 19/19/19
f 19/19/19 20/20/20 17/17/17
f 21/21/21 22/22/22 23/23/23
f 22/22/22 21/21/21 24/24/24
f 25/25/25 26/26/26 27/27/27
f 26/26/26 25/25/25 28/28/28
f 29/29/29 30/30/30 31/31/31
f 32/32/32 30/30/30 33/33/33
f 34/34/34 35/35/35 36/36/36
f 37/37/37 35/35/35 38/38/38
f 39/39/39 40/40/40 41/41/41
f 41/41/41 42/42/42 39/39/39
f 43/43/43 44/44/44 45/45/45
f 44/44/44 43/43/43 46/46/46
f 47/47/47 48/48/48 49/49/49
f 49/49/49 50/50/50 47/47/47
f 51/51/51 52/52/52 53/53/53
f 53/53/53 54/54/54 51/51/51
f 55/55/55 56/56/56 57/57/57
f 57/57/57 58/58/58 55/55/55
f 59/59/59 60/60/60 61/61/61
f 60/60/60 59/59/59 62/62/62
