g MESH
v 1.631653 0.9499617 0.9913664
v -1.684587 1.012521 0.9386709
v 1.60229 0.9982495 -0.9886459
v -1.654656 1.001006 -0.9957008
v 1.609181 0.08320808 0.9220514
v -1.770327 0.1073456 0.9322836
v 1.608015 -0.001333714 -0.9209585
v -1.629438 -0.01481915 -0.9621191
v 1.260318 1.775408 0.6933994
v -0.1206627 1.763856 0.6823583
v 1.296834 1.75424 -0.689508
v -0.1066351 1.75906 -0.6923654
v 1.257451 0.9774535 0.678719
v -0.09475899 0.9806752 0.6976917
v 1.25966 0.9872942 -0.7215629
v -0.1591341 0.9806609 -0.6623445

vn 0.2533091 0.8723831 0.4180697
vn -0.4532855 0.8187789 0.3523258
vn 0.2739929 0.8597189 -0.4310583
vn -0.1262901 0.8812504 -0.455465
vn 0.1189766 -0.9546655 0.272871
vn -0.1964647 -0.7084532 0.677861
vn 0.3773631 -0.6562565 -0.6533946
vn -0.2775602 -0.9373952 -0.2103584
vn 0.4467701 0.7774072 0.4427576
vn -0.6922128 0.6271538 0.357099
vn 0.4349405 0.786579 -0.4383154
vn -0.241795 0.8434103 -0.4797856
vn 0.2736603 -0.9269009 0.256836
vn -0.3444 -0.6068509 0.7163243
vn 0.5847374 -0.5561396 -0.5905851
vn -0.48008 -0.8443661 -0.2378429


usemtl Generated Mesh
usemap Generated Mesh
f 1/1/1 3/3/3 4/4/4
f 4/4/4 2/2/2 1/1/1
f 5/5/5 8/8/8 7/7/7
f 8/8/8 5/5/5 6/6/6
f 4/4/4 3/3/3 7/7/7
f 7/7/7 8/8/8 4/4/4
f 1/1/1 2/2/2 6/6/6
f 6/6/6 5/5/5 1/1/1
f 2/2/2 4/4/4 8/8/8
f 8/8/8 6/6/6 2/2/2
f 1/1/1 7/7/7 3/3/3
f 7/7/7 1/1/1 5/5/5
f 9/9/9 11/11/11 12/12/12
f 12/12/12 10/10/10 9/9/9
f 13/13/13 16/16/16 15/15/15
f 16/16/16 13/13/13 14/14/14
f 12/12/12 11/11/11 15/15/15
f 15/15/15 16/16/16 12/12/12
f 9/9/9 10/10/10 14/14/14
f 14/14/14 13/13/13 9/9/9
f 10/10/10 12/12/12 16/16/16
f 16/16/16 14/14/14 10/10/10
f 9/9/9 15/15/15 11/11/11
f 15/15/15 9/9/9 13/13/13
