g MESH
v 1.617491 1.002428 0.9589405
v 1.589917 0.9681659 -0.9369371
v -1.650622 0.978164 -0.9691925
v -1.65269 0.9850738 0.9403
v 1.613773 -0.03693056 0.9775791
v -1.6599 0.04938555 -0.971488
v 1.639213 0.004529476 -0.9584708
v -1.647711 0.01185989 0.9968963
v -1.650622 0.978164 -0.9691925
v 1.589917 0.9681659 -0.9369371
v 1.639213 0.004529476 -0.9584708
v -1.6599 0.04938555 -0.971488
v 1.617491 1.002428 0.9589405
v -1.65269 0.9850738 0.9403
v -1.647711 0.01185989 0.9968963
v 1.613773 -0.03693056 0.9775791
v -1.65269 0.9850738 0.9403
v -1.650622 0.978164 -0.9691925
v -1.6599 0.04938555 -0.971488
v -1.647711 0.01185989 0.9968963
v 1.617491 1.002428 0.9589405
v 1.639213 0.004529476 -0.9584708
v 1.589917 0.9681659 -0.9369371
v 1.613773 -0.03693056 0.9775791
v 1.289501 1.758244 0.7100639
v 1.306088 1.756439 -0.6890659
v -0.1078961 1.775 -0.7004786
v -0.06166983 1.747319 0.7285275
v 1.28567 0.9823875 0.7108612
v -0.05638742 0.9849894 -0.7122121
v 1.279366 0.9978931 -0.7322707
v -0.05140829 1.026028 0.746315
v -0.1078961 1.775 -0.7004786
v 1.306088 1.756439 -0.6890659
v 1.279366 0.9978931 -0.7322707
v -0.05638742 0.9849894 -0.7122121
v 1.289501 1.758244 0.7100639
v -0.06166983 1.747319 0.7285275
v -0.05140829 1.026028 0.746315
v 1.28567 0.9823875 0.7108612
v -0.06166983 1.747319 0.7285275
v -0.1078961 1.775 -0.7004786
v -0.05638742 0.9849894 -0.7122121
v -0.05140829 1.026028 0.746315
v 1.289501 1.758244 0.7100639
v 1.279366 0.9978931 -0.7322707
v 1.306088 1.756439 -0.6890659
v 1.28567 0.9823875 0.7108612

vn -0.001045197 0.9999411 -0.01081169
vn 0.003265116 0.9998307 -0.01811611
vn -0.001045197 0.9999411 -0.01081169
vn -0.005285902 0.9999794 -0.003624334
vn -0.01428916 -0.9996924 -0.02027201
vn -0.01428916 -0.9996924 -0.02027201
vn -0.01350683 -0.9996758 -0.02158529
vn -0.01506752 -0.9997066 -0.01896529
vn 0.007028908 0.01273927 -0.9998941
vn 0.01002113 0.022852 -0.9996887
vn 0.007028908 0.01273927 -0.9998941
vn 0.003978681 0.002431749 -0.9999892
vn 0.0002833158 0.03735654 0.999302
vn -0.005998359 0.05802428 0.9982972
vn 0.0002833158 0.03735654 0.999302
vn 0.006189635 0.01790745 0.9998205
vn -0.9999939 0.002334864 0.002628133
vn -0.9999495 0.009991406 -0.001119383
vn -0.9999939 0.002334864 0.002628133
vn -0.99997 -0.004761577 0.006101261
vn 0.9997411 0.02275014 -0.0005141654
vn 0.9997411 0.02275014 -0.0005141654
vn 0.9985571 0.05142761 -0.01545249
vn 0.9999091 -0.003341768 0.01306702
vn 0.002784536 0.9999545 0.009120202
vn 0.0131345 0.9999131 -0.001133804
vn 0.002784536 0.9999545 0.009120202
vn -0.00781563 0.999777 0.01961947
vn -0.01131501 -0.9998969 0.008842694
vn -0.01131501 -0.9998969 0.008842694
vn 0.009497287 -0.9998968 -0.01078476
vn -0.03186109 -0.9990939 0.02822056
vn -0.003069479 0.03540557 -0.9993683
vn 0.008800377 0.05655396 -0.9983607
vn -0.003069479 0.03540557 -0.9993683
vn -0.01514746 0.01386163 -0.9997892
vn 0.02020312 0.0124967 0.9997177
vn 0.01345858 0.02484222 0.9996007
vn 0.02020312 0.0124967 0.9997177
vn 0.02653577 0.0008962149 0.9996476
vn -0.9990085 -0.04075995 0.01790424
vn -0.9973718 -0.06548895 0.03099493
vn -0.9990085 -0.04075995 0.01790424
vn -0.9998929 -0.01413113 0.003811055
vn 0.9997936 -0.02000508 0.003520374
vn 0.9997936 -0.02000508 0.003520374
vn 0.9992853 -0.03588004 0.0118927
vn 0.9999779 -0.004942089 -0.004421629

vt 0.9800006 0.2938654
vt 0.9774933 0.004916024
vt 0.6828195 0
vt 0.6826314 0.2910244
vt 0.2976867 0.002944118
vt 0 0.3
vt 0.3 0.2980161
vt 0.001108359 0
vt 0.3222769 0.5177212
vt 0.6169507 0.5160659
vt 0.6214333 0.3565173
vt 0.3214333 0.3639441
vt 0.324215 0.2109679
vt 0.6215842 0.2080946
vt 0.6211314 0.04696032
vt 0.324553 0.03888212
vt 0.01031124 0.8410293
vt 0.3013356 0.8398852
vt 0.3016855 0.6861081
vt 0.001685433 0.679895
vt 0.2976134 0.4817002
vt 0.005382148 0.3164789
vt 0.008664087 0.4760275
vt 0.3004541 0.3096144
vt 0.9501754 0.2559342
vt 0.9516836 0.04269389
vt 0.8231051 0.0409545
vt 0.8273087 0.2587483
vt 0.2678512 0.04359439
vt 0.1458131 0.260484
vt 0.2672778 0.2635411
vt 0.1462658 0.0381909
vt 0.4625625 0.6496528
vt 0.5911411 0.6465797
vt 0.5887111 0.5209878
vt 0.4672464 0.5188513
vt 0.3540402 0.3361078
vt 0.476907 0.334299
vt 0.4759739 0.2148754
vt 0.3543886 0.2076499
vt 0.04258732 0.9672337
vt 0.2603811 0.9718168
vt 0.2621694 0.8410153
vt 0.03987633 0.8478101
vt 0.2596823 0.6068401
vt 0.03985714 0.4809494
vt 0.04644195 0.6065414
vt 0.2598038 0.4783822

usemtl Generated Mesh
usemap Generated Mesh
f 1/1/1 2/2/2 3/3/3
f 3/3/3 4/4/4 1/1/1
f 5/5/5 6/6/6 7/7/7
f 6/6/6 5/5/5 8/8/8
f 9/9/9 10/10/10 11/11/11
f 11/11/11 12/12/12 9/9/9
f 13/13/13 14/14/14 15/15/15
f 15/15/15 16/16/16 13/13/13
f 17/17/17 18/18/18 19/19/19
f 19/19/19 20/20/20 17/17/17
f 21/21/21 22/22/22 23/23/23
f 22/22/22 21/21/21 24/24/24
f 25/25/25 26/26/26 27/27/27
f 27/27/27 28/28/28 25/25/25
f 29/29/29 30/30/30 31/31/31
f 30/30/30 29/29/29 32/32/32
f 33/33/33 34/34/34 35/35/35
f 35/35/35 36/36/36 33/33/33
f 37/37/37 38/38/38 39/39/39
f 39/39/39 40/40/40 37/37/37
f 41/41/41 42/42/42 43/43/43
f 43/43/43 44/44/44 41/41/41
f 45/45/45 46/46/46 47/47/47
f 46/46/46 45/45/45 48/48/48
